<svg width="127" height="58" viewBox="0 0 127 58" fill="none" xmlns="http://www.w3.org/2000/svg">
<rect width="14.8696" height="18" rx="0.313043" transform="matrix(0.965926 -0.258819 0.5 0.866025 0.244629 4.54883)" fill="white"/>
<rect width="9.91304" height="12" rx="0.208696" transform="matrix(0.965926 0.258819 -0.5 0.866025 117.139 44.2158)" fill="white"/>
<path d="M91.2096 32.4859C90.2688 29.7069 89.6237 26.5905 88.2554 23.9987C86.0344 19.792 81.0534 17.6049 76.5331 18.1149C72.6727 18.5505 68.6927 19.376 67.6149 23.6882C67.0325 26.0186 68.4504 28.4011 70.7774 28.6586C73.5857 28.9694 76.3379 28.5059 78.7481 26.9334C84.4743 23.1972 78.2087 12.315 73.2402 11.202C68.599 10.1623 63.2123 9.1233 58.6465 10.6689" stroke="white" stroke-width="4.0639" stroke-linecap="round"/>
</svg>
